<?xml version="1.0" encoding="UTF-8"?>
<svg width="16px" height="16px" viewBox="0 0 16 16" version="1.1" xmlns="http://www.w3.org/2000/svg" xmlns:xlink="http://www.w3.org/1999/xlink">
    <g id="侧边栏icon-数据碰撞比对" stroke="none" stroke-width="1" fill="none" fill-rule="evenodd">
        <rect id="Rectangle" fill-opacity="0" fill="currentColor" x="0" y="0" width="16" height="16"></rect>
        <g id="切换对比_switch-contrast" transform="translate(1.000000, 1.562985)" stroke="currentColor" stroke-linecap="round" stroke-linejoin="round">
            <path d="M9.1,1.44444444 L12.6,1.44444444 C13.25996,1.44444444 13.58994,1.44444444 13.79497,1.65598333 C14,1.86752222 14,2.20797778 14,2.88888889 L14,10.1111111 C14,10.7920222 14,11.1324778 13.79497,11.3440167 C13.58994,11.5555556 13.25996,11.5555556 12.6,11.5555556 L9.1,11.5555556" id="路径"></path>
            <path d="M4.9,1.44444444 L1.4,1.44444444 C0.740033,1.44444444 0.4100495,1.44444444 0.2050265,1.65598333 C0,1.86752222 0,2.20797778 0,2.88888889 L0,10.1111111 C0,10.7920222 0,11.1324778 0.2050265,11.3440167 C0.4100495,11.5555556 0.740033,11.5555556 1.4,11.5555556 L4.9,11.5555556" id="路径"></path>
            <line x1="7" y1="1.27527591e-14" x2="7" y2="13" id="路径"></line>
        </g>
    </g>
</svg>