<?xml version="1.0" encoding="UTF-8"?>
<svg width="20px" height="20px" viewBox="0 0 20 20" version="1.1" xmlns="http://www.w3.org/2000/svg" xmlns:xlink="http://www.w3.org/1999/xlink">
    <defs>
        <linearGradient x1="66.1690708%" y1="4.94320342%" x2="79.6826766%" y2="96.6782849%" id="linearGradient-1">
            <stop stop-color="#67C0FF" offset="0%"></stop>
            <stop stop-color="#2989FF" offset="100%"></stop>
        </linearGradient>
    </defs>
    <g id="0915-数据碰撞比对" stroke="none" stroke-width="1" fill="none" fill-rule="evenodd">
        <g id="技战法详情" transform="translate(-22.000000, -15.000000)">
            <g id="钱庄核心账户分析备份-2" transform="translate(20.000000, 13.000000)">
                <rect id="矩形备份-13" x="0" y="0" width="24" height="24" rx="2"></rect>
                <g id="licai" transform="translate(2.000000, 2.000000)" fill="url(#linearGradient-1)" fill-rule="nonzero">
                    <path d="M9,20 L2.45016418,20 C2.12000021,20 1.8072133,19.9520313 1.51180343,19.856094 C1.21639356,19.7601566 0.955737801,19.6265296 0.729836139,19.4552129 C0.503934477,19.2838962 0.325819705,19.0851689 0.195491823,18.8590308 C0.065163941,18.6328928 0,18.3896231 0,18.1292217 L0,7.87077827 C0,7.34997553 0.230245925,6.90797846 0.690737774,6.54478708 C1.15122962,6.18159569 1.71163952,6 2.37196745,6 L9,6 L9,20 Z M11,20 L17.5498358,20 C17.8799998,20 18.1927867,19.9520313 18.4881966,19.856094 C18.7836064,19.7601566 19.0442622,19.6265296 19.2701639,19.4552129 C19.4960655,19.2838962 19.6741803,19.0851689 19.8045082,18.8590308 C19.9348361,18.6328928 20,18.3896231 20,18.1292217 L20,7.87077827 C20,7.34997553 19.7697541,6.90797846 19.3092622,6.54478708 C18.8487704,6.18159569 18.2883605,6 17.6280325,6 L11,6 L11,20 Z M10,0 C10.6311838,0 11.1428594,0.511675571 11.1428594,1.14285938 L11.1428594,3.42857813 C11.1428594,4.05976193 10.6311838,4.5714375 10,4.5714375 C9.3688162,4.5714375 8.85714063,4.05976193 8.85714063,3.42857813 L8.85714063,1.14285938 C8.85714063,0.511675571 9.3688162,0 10,0 Z M5.84685938,0.724578125 L6.98971875,2.704 C7.19698411,3.05778751 7.19883854,3.49549723 6.9945783,3.85102823 C6.79031807,4.20655922 6.41124946,4.42542045 6.00122045,4.42456154 C5.59119144,4.42369757 5.2130458,4.2032455 5.01028125,3.84685938 L3.86742188,1.86742188 C3.66036027,1.5136438 3.6586295,1.07606615 3.86288603,0.720661169 C4.06714257,0.365256186 4.4460984,0.146464796 4.85601641,0.147271853 C5.26593443,0.148083384 5.64402339,0.368369395 5.846875,0.724578125 L5.84685938,0.724578125 Z M15.7142813,0.306296875 C16.26086,0.621899159 16.4481262,1.32082078 16.1325625,1.86742187 L14.9897344,3.846875 C14.6721071,4.38904251 13.9763656,4.57309634 13.432196,4.25891147 C12.8880264,3.9447266 12.699567,3.25016543 13.0102969,2.70401562 L14.1531563,0.72459375 C14.468759,0.178005585 15.1676923,-0.00926179044 15.7142969,0.3063125 L15.7142813,0.306296875 Z" id="形状结合"></path>
                </g>
            </g>
        </g>
    </g>
</svg>