<svg width="14px" height="14px" viewBox="0 0 14 14" version="1.1" xmlns="http://www.w3.org/2000/svg" xmlns:xlink="http://www.w3.org/1999/xlink">
    <title>右键操作提示-hover</title>
    <defs>
        <rect id="path-1" x="0" y="0" width="14" height="14"></rect>
    </defs>
    <g id="数据分析平台" stroke="none" stroke-width="1" fill="none" fill-rule="evenodd">
        <g id="数据分析-资金交易明细" transform="translate(-570.000000, -326.000000)">
            <g id="右键操作提示-hover" transform="translate(570.000000, 326.000000)">
                <mask id="mask-2" fill="white">
                    <use xlink:href="#path-1"></use>
                </mask>
                <use id="Mask" fill-opacity="0" fill="#D8D8D8" xlink:href="#path-1"></use>
                <path d="M1,5 L13,5 C13,9.418278 9.418278,13 5,13 L1,13 L1,13 L1,5 Z" id="Rectangle" fill="#EBEFF4" mask="url(#mask-2)"></path>
                <g id="Group-2" mask="url(#mask-2)">
                    <g transform="translate(1.000000, 1.000000)">
                        <rect id="Rectangle" stroke="none" fill="#FF8000" fill-rule="evenodd" x="0" y="0" width="12" height="4"></rect>
                        <path d="M9,12 L1,12 C0.44771525,12 0,11.5522847 0,11 L0,1 C0,0.44771525 0.44771525,0 1,0 L11,0 C11.5522847,0 12,0.44771525 12,1 L12,9" id="Path" stroke="#FF8000" stroke-width="1" fill="none" stroke-linecap="round" stroke-linejoin="round"></path>
                        <line x1="0" y1="4" x2="12" y2="4" id="Path-15" stroke="#FF8000" stroke-width="1" fill="none"></line>
                        <line x1="2" y1="2" x2="6" y2="2" id="Path-15-Copy" stroke="#EBEFF4" stroke-width="1" fill="none" stroke-linecap="round"></line>
                        <line x1="9" y1="2" x2="10" y2="2" id="Path-15-Copy-2" stroke="#EBEFF4" stroke-width="1" fill="none" stroke-linecap="round"></line>
                        <circle id="Oval" stroke="#FF8000" stroke-width="1" fill="#FF8000" fill-rule="evenodd" cx="8.5" cy="8.5" r="3.5"></circle>
                        <line x1="7.25" y1="7" x2="10" y2="10" id="Path-21" stroke="#EBEFF4" stroke-width="1" fill="none" stroke-linecap="round" stroke-linejoin="round"></line>
                        <polygon id="Path-22" stroke="none" fill="#EBEFF4" fill-rule="evenodd" points="6 9.25 6 6.25 9.42857143 6.25"></polygon>
                    </g>
                </g>
            </g>
        </g>
    </g>
</svg>