<?xml version="1.0" encoding="UTF-8"?>
<svg width="14px" height="14px" viewBox="0 0 14 14" version="1.1" xmlns="http://www.w3.org/2000/svg" xmlns:xlink="http://www.w3.org/1999/xlink">
    <g id="0802-分析模型管理" stroke="none" stroke-width="1" fill="none" fill-rule="evenodd">
        <g id="02全部模型-列表收起" transform="translate(-1097.000000, -241.000000)" fill="currentColor">
            <g id="btn-新增" transform="translate(1086.000000, 232.000000)">
                <g id="fenzu-(3)" transform="translate(11.001024, 9.013659)">
                    <path d="M11.1221463,9.5347 L10.3029073,9.99028049 L11.0581902,10.7934366 L12.9333707,12.6376805 L12.6216488,12.9603293 L10.7035122,11.0482024 L10.0301976,10.3608878 L9.53966829,11.1601171 L8.9103,12.2190463 L7.17197805,7.13305122 L12.3399415,8.91625854 L11.1221463,9.5347 Z M6.27182927,6.01416098 C6.16906585,6.04770976 6.08381951,6.12086829 6.03507561,6.21743415 C5.98633171,6.31393171 5.97805122,6.42598293 6.01212927,6.52862683 L8.40377317,13.6916073 C8.45519756,13.8632098 8.61126341,13.9821927 8.79039512,13.9863244 C8.93625122,13.9863244 9.07710488,13.906439 9.14606341,13.7705707 L10.248939,11.671578 L12.2510415,13.6766683 L12.2739878,13.6966098 C12.349622,13.7718512 12.452061,13.8139366 12.5587,13.8135268 C12.6650659,13.8139878 12.7672317,13.7719195 12.8424049,13.6966098 L13.6955854,12.8415 C13.7718854,12.7663268 13.8148415,12.6637512 13.8148415,12.5567195 C13.8148415,12.4496707 13.7718854,12.3470951 13.6955854,12.2720073 L11.6705537,10.2509707 L13.7685561,9.14908537 C13.861861,9.1 13.931878,9.01589756 13.963361,8.91526829 C13.9971829,8.81448537 13.9895683,8.7043122 13.9421561,8.60914634 C13.8947439,8.51398049 13.8114439,8.4414878 13.7105927,8.40780244 L6.52159268,6.01416098 C6.48264878,6.00101463 6.44182683,5.9942878 6.40074878,5.99415122 C6.35699024,5.9945439 6.31364146,6.0012878 6.27182927,6.01416098 Z M6.64950488,10.9892488 L6.99711463,11.9883024 L0.998029268,11.9883024 C0.733053659,11.9883024 0.478953659,11.8830634 0.291558537,11.6956512 C0.104214634,11.5083244 -0.00102439024,11.2542244 -0.00102439024,10.9892488 L-0.00102439024,7.98634146 C-0.00102439024,7.72138293 0.104214634,7.47311463 0.291558537,7.28577073 C0.478953659,7.0984439 0.733053659,6.98634146 0.998029268,6.98634146 L5.25985122,6.98634146 L5.60650488,7.98634146 L0.998029268,7.98634146 L0.998029268,10.9892488 L6.64950488,10.9892488 Z M0.998029268,3.98634146 L12.9989756,3.98634146 L12.9989756,0.986341463 L0.998029268,0.986341463 L0.998029268,3.98634146 Z M0.998029268,-0.0136585366 L12.9863317,-0.0136585366 C13.5380683,-0.0136585366 13.9989756,0.434587805 13.9989756,0.986341463 L13.9989756,3.99612927 C13.9989756,4.26101951 13.880061,4.5151878 13.6927171,4.70253171 C13.5053902,4.88985854 13.251222,4.98634146 12.9863317,4.98634146 L0.998029268,4.98634146 C0.44627561,4.98634146 -0.00102439024,4.53807805 -0.00102439024,3.98634146 L-0.00102439024,0.986341463 C-0.00102439024,0.434587805 0.44627561,-0.0136585366 0.998029268,-0.0136585366 Z" id="icon-新增"></path>
                </g>
            </g>
        </g>
    </g>
</svg>