<?xml version="1.0" encoding="UTF-8"?>
<svg width="9px" height="12px" viewBox="0 0 9 12" version="1.1" xmlns="http://www.w3.org/2000/svg" xmlns:xlink="http://www.w3.org/1999/xlink">
    <g id="0802-分析模型管理" stroke="none" stroke-width="1" fill="none" fill-rule="evenodd">
        <g id="07模型分类管理-暂无子分类" transform="translate(-236.000000, -280.000000)" fill="#167CF3">
            <g id="icon-拖拽" transform="translate(236.000000, 280.000000)">
                <path d="M2.66666667,1.33333333 C2.66666667,2.0697 2.0697,2.66666667 1.33333333,2.66666667 C0.596966667,2.66666667 0,2.0697 0,1.33333333 C0,0.596953333 0.596966667,0 1.33333333,0 C2.0697,0 2.66666667,0.596953333 2.66666667,1.33333333 Z M1.33333333,7.33333333 C2.0697,7.33333333 2.66666667,6.73636667 2.66666667,6 C2.66666667,5.26363333 2.0697,4.66666667 1.33333333,4.66666667 C0.596966667,4.66666667 0,5.26363333 0,6 C0,6.73636667 0.596966667,7.33333333 1.33333333,7.33333333 Z M1.33333333,12 C2.0697,12 2.66666667,11.4030333 2.66666667,10.6666667 C2.66666667,9.9303 2.0697,9.33333333 1.33333333,9.33333333 C0.596966667,9.33333333 0,9.9303 0,10.6666667 C0,11.4030333 0.596966667,12 1.33333333,12 Z" id="形状"></path>
                <path d="M8.66666667,1.33333333 C8.66666667,2.0697 8.0697,2.66666667 7.33333333,2.66666667 C6.59696667,2.66666667 6,2.0697 6,1.33333333 C6,0.596953333 6.59696667,0 7.33333333,0 C8.0697,0 8.66666667,0.596953333 8.66666667,1.33333333 Z M7.33333333,7.33333333 C8.0697,7.33333333 8.66666667,6.73636667 8.66666667,6 C8.66666667,5.26363333 8.0697,4.66666667 7.33333333,4.66666667 C6.59696667,4.66666667 6,5.26363333 6,6 C6,6.73636667 6.59696667,7.33333333 7.33333333,7.33333333 Z M7.33333333,12 C8.0697,12 8.66666667,11.4030333 8.66666667,10.6666667 C8.66666667,9.9303 8.0697,9.33333333 7.33333333,9.33333333 C6.59696667,9.33333333 6,9.9303 6,10.6666667 C6,11.4030333 6.59696667,12 7.33333333,12 Z" id="形状"></path>
            </g>
        </g>
    </g>
</svg>