<?xml version="1.0" encoding="UTF-8"?>
<svg width="14px" height="14px" viewBox="0 0 14 14" version="1.1" xmlns="http://www.w3.org/2000/svg" xmlns:xlink="http://www.w3.org/1999/xlink">
    <g id="0802-分析模型管理" stroke="none" stroke-width="1" fill="none" fill-rule="evenodd">
        <g id="02全部模型-列表收起" transform="translate(-1344.000000, -240.000000)" fill="currentColor">
            <g id="btn-删除" transform="translate(1332.000000, 232.000000)">
                <path d="M22.000582,19 L22.000582,13.000412 L21,13.000412 L21,19 L22.000582,19 Z M17,19 L17,13.000412 L15.9973602,13.000412 L16.0179943,19 L17,19 Z M19.5140717,18.8390809 L19.5140717,13.2345657 L18.4859454,13.2345657 L18.4859454,18.8390809 L19.5140717,18.8390809 Z M25.9968567,10.0029297 L22.000582,10.0029297 L22.000582,8 L16,8 L15.9973602,10.0029297 L12,10.0029297 L12,11.0019531 L14.0036163,11.0019531 L14.0036163,22 L24.0002594,22 L24.0002594,11.0019531 L25.9968567,11.0019531 L25.9968567,10.0029297 Z M17,9.00384521 L21,9.00384521 L21,10.0029297 L17,10.0029297 L17,9.00384521 Z M23.0061646,21 L14.9915161,21 L14.9915161,11.0019531 L23.0061646,11.0019531 L23.0061646,21 Z" id="icon-删除"></path>
            </g>
        </g>
    </g>
</svg>