<?xml version="1.0" encoding="UTF-8"?>
<svg width="12px" height="12px" viewBox="0 0 12 12" version="1.1" xmlns="http://www.w3.org/2000/svg" xmlns:xlink="http://www.w3.org/1999/xlink">
    <defs>
        <rect id="path-1" x="0" y="0" width="12" height="12"></rect>
    </defs>
    <g id="数据分析平台" stroke="none" stroke-width="1" fill="none" fill-rule="evenodd">
        <g id="组件库" transform="translate(-306.000000, -195.000000)">
            <g id="标签黑-icon关闭-hover" transform="translate(306.000000, 195.000000)">
                <mask id="mask-2" fill="white">
                    <use xlink:href="#path-1"></use>
                </mask>
                <g id="Mask"></g>
                <path d="M6,0 C9.3137085,0 12,2.6862915 12,6 C12,9.3137085 9.3137085,12 6,12 C2.6862915,12 0,9.3137085 0,6 C0,2.6862915 2.6862915,0 6,0 Z M2.21787518,2.21787518 C2.02261303,2.41313733 2.02261303,2.72971982 2.21787518,2.92498196 L5.293,6 L2.21787518,9.07501804 C2.04430883,9.24858439 2.02502368,9.51800879 2.16001973,9.71287693 L2.21787518,9.78212482 C2.41313733,9.97738697 2.72971982,9.97738697 2.92498196,9.78212482 L6,6.707 L9.07501804,9.78212482 C9.27028018,9.97738697 9.58686267,9.97738697 9.78212482,9.78212482 C9.97738697,9.58686267 9.97738697,9.27028018 9.78212482,9.07501804 L6.707,6 L9.78212482,2.92498196 C9.95569117,2.75141561 9.97497632,2.48199121 9.83998027,2.28712307 L9.78212482,2.21787518 C9.58686267,2.02261303 9.27028018,2.02261303 9.07501804,2.21787518 L6,5.293 L2.92498196,2.21787518 C2.72971982,2.02261303 2.41313733,2.02261303 2.21787518,2.21787518 Z" id="Combined-Shape" fill="#333333" mask="url(#mask-2)"></path>
            </g>
        </g>
    </g>
</svg>